HIERARCHY
ROOT Joint0
{
  OFFSET 0.0000 0.0000 1.0000
  CHANNELS 6 Xposition Yposition Zposition Zrotation Xrotation Yrotation
  JOINT Joint1
  {
    OFFSET 0.0811 -0.0899 -0.0114
    CHANNELS 3 Zrotation Xrotation Yrotation
    JOINT Joint4
    {
      OFFSET 0.0297 -0.3677 -0.0039
      CHANNELS 3 Zrotation Xrotation Yrotation
      JOINT Joint7
      {
        OFFSET -0.0120 -0.3841 -0.0490
        CHANNELS 3 Zrotation Xrotation Yrotation
        JOINT Joint10
        {
          OFFSET 0.0247 -0.0555 0.1226
          CHANNELS 3 Zrotation Xrotation Yrotation
          End Site
          {
            OFFSET 0.0247 -0.0555 0.1226
          }
        }
      }
    }
  }
  JOINT Joint2
  {
    OFFSET -0.0773 -0.0878 -0.0084
    CHANNELS 3 Zrotation Xrotation Yrotation
    JOINT Joint5
    {
      OFFSET -0.0344 -0.3716 -0.0062
      CHANNELS 3 Zrotation Xrotation Yrotation
      JOINT Joint8
      {
        OFFSET 0.0139 -0.3835 -0.0484
        CHANNELS 3 Zrotation Xrotation Yrotation
        JOINT Joint11
        {
          OFFSET -0.0293 -0.0469 0.1263
          CHANNELS 3 Zrotation Xrotation Yrotation
          End Site
          {
            OFFSET -0.0293 -0.0469 0.1263
          }
        }
      }
    }
  }
  JOINT Joint3
  {
    OFFSET -0.0027 0.1037 -0.0232
    CHANNELS 3 Zrotation Xrotation Yrotation
    JOINT Joint6
    {
      OFFSET 0.0030 0.1296 -0.0027
      CHANNELS 3 Zrotation Xrotation Yrotation
      JOINT Joint9
      {
        OFFSET 0.0015 0.0533 0.0332
        CHANNELS 3 Zrotation Xrotation Yrotation
        JOINT Joint12
        {
          OFFSET -0.0004 0.2283 -0.0600
          CHANNELS 3 Zrotation Xrotation Yrotation
          JOINT Joint15
          {
            OFFSET 0.0048 0.0641 0.0558
            CHANNELS 3 Zrotation Xrotation Yrotation
            End Site
            {
              OFFSET 0.0048 0.0641 0.0558
            }
          }
        }
        JOINT Joint13
        {
          OFFSET 0.0787 0.1275 -0.0430
          CHANNELS 3 Zrotation Xrotation Yrotation
          JOINT Joint16
          {
            OFFSET 0.0914 0.0355 -0.0086
            CHANNELS 3 Zrotation Xrotation Yrotation
            JOINT Joint18
            {
              OFFSET 0.2512 -0.0141 -0.0294
              CHANNELS 3 Zrotation Xrotation Yrotation
              JOINT Joint20
              {
                OFFSET 0.2431 0.0092 0.0027
                CHANNELS 3 Zrotation Xrotation Yrotation
                JOINT Joint22
                {
                  OFFSET 0.1053 -0.0108 0.0234
                  CHANNELS 3 Zrotation Xrotation Yrotation
                  JOINT Joint23
                  {
                    OFFSET 0.0332 0.0042 0.0030
                    CHANNELS 3 Zrotation Xrotation Yrotation
                    JOINT Joint24
                    {
                      OFFSET 0.0234 -0.0009 0.0005
                      CHANNELS 3 Zrotation Xrotation Yrotation
                      End Site
                      {
                        OFFSET 0.0234 -0.0009 0.0005
                      }
                    }
                  }
                }
                JOINT Joint25
                {
                  OFFSET 0.1126 -0.0078 -0.0002
                  CHANNELS 3 Zrotation Xrotation Yrotation
                  JOINT Joint26
                  {
                    OFFSET 0.0317 0.0021 -0.0047
                    CHANNELS 3 Zrotation Xrotation Yrotation
                    JOINT Joint27
                    {
                      OFFSET 0.0246 -0.0008 -0.0039
                      CHANNELS 3 Zrotation Xrotation Yrotation
                      End Site
                      {
                        OFFSET 0.0246 -0.0008 -0.0039
                      }
                    }
                  }
                }
                JOINT Joint28
                {
                  OFFSET 0.0860 -0.0168 -0.0403
                  CHANNELS 3 Zrotation Xrotation Yrotation
                  JOINT Joint29
                  {
                    OFFSET 0.0158 -0.0006 -0.0114
                    CHANNELS 3 Zrotation Xrotation Yrotation
                    JOINT Joint30
                    {
                      OFFSET 0.0161 -0.0011 -0.0109
                      CHANNELS 3 Zrotation Xrotation Yrotation
                      End Site
                      {
                        OFFSET 0.0161 -0.0011 -0.0109
                      }
                    }
                  }
                }
                JOINT Joint31
                {
                  OFFSET 0.0999 -0.0111 -0.0238
                  CHANNELS 3 Zrotation Xrotation Yrotation
                  JOINT Joint32
                  {
                    OFFSET 0.0286 0.0023 -0.0053
                    CHANNELS 3 Zrotation Xrotation Yrotation
                    JOINT Joint33
                    {
                      OFFSET 0.0234 -0.0009 -0.0074
                      CHANNELS 3 Zrotation Xrotation Yrotation
                      End Site
                      {
                        OFFSET 0.0234 -0.0009 -0.0074
                      }
                    }
                  }
                }
                JOINT Joint34
                {
                  OFFSET 0.0426 -0.0219 0.0277
                  CHANNELS 3 Zrotation Xrotation Yrotation
                  JOINT Joint35
                  {
                    OFFSET 0.0185 0.0008 0.0246
                    CHANNELS 3 Zrotation Xrotation Yrotation
                    JOINT Joint36
                    {
                      OFFSET 0.0221 -0.0048 0.0152
                      CHANNELS 3 Zrotation Xrotation Yrotation
                      End Site
                      {
                        OFFSET 0.0221 -0.0048 0.0152
                      }
                    }
                  }
                }
              }
            }
          }
        }
        JOINT Joint14
        {
          OFFSET -0.0815 0.1251 -0.0492
          CHANNELS 3 Zrotation Xrotation Yrotation
          JOINT Joint17
          {
            OFFSET -0.0975 0.0385 -0.0099
            CHANNELS 3 Zrotation Xrotation Yrotation
            JOINT Joint19
            {
              OFFSET -0.2546 -0.0159 -0.0229
              CHANNELS 3 Zrotation Xrotation Yrotation
              JOINT Joint21
              {
                OFFSET -0.2519 0.0079 0.0007
                CHANNELS 3 Zrotation Xrotation Yrotation
                JOINT Joint37
                {
                  OFFSET -0.1043 -0.0103 0.0246
                  CHANNELS 3 Zrotation Xrotation Yrotation
                  JOINT Joint38
                  {
                    OFFSET -0.0341 0.0034 0.0025
                    CHANNELS 3 Zrotation Xrotation Yrotation
                    JOINT Joint39
                    {
                      OFFSET -0.0236 -0.0015 -0.0003
                      CHANNELS 3 Zrotation Xrotation Yrotation
                      End Site
                      {
                        OFFSET -0.0236 -0.0015 -0.0003
                      }
                    }
                  }
                }
                JOINT Joint40
                {
                  OFFSET -0.1123 -0.0074 -0.0003
                  CHANNELS 3 Zrotation Xrotation Yrotation
                  JOINT Joint41
                  {
                    OFFSET -0.0322 0.0016 -0.0048
                    CHANNELS 3 Zrotation Xrotation Yrotation
                    JOINT Joint42
                    {
                      OFFSET -0.0245 -0.0012 -0.0045
                      CHANNELS 3 Zrotation Xrotation Yrotation
                      End Site
                      {
                        OFFSET -0.0245 -0.0012 -0.0045
                      }
                    }
                  }
                }
                JOINT Joint43
                {
                  OFFSET -0.0863 -0.0161 -0.0419
                  CHANNELS 3 Zrotation Xrotation Yrotation
                  JOINT Joint44
                  {
                    OFFSET -0.0162 -0.0001 -0.0120
                    CHANNELS 3 Zrotation Xrotation Yrotation
                    JOINT Joint45
                    {
                      OFFSET -0.0165 -0.0007 -0.0110
                      CHANNELS 3 Zrotation Xrotation Yrotation
                      End Site
                      {
                        OFFSET -0.0165 -0.0007 -0.0110
                      }
                    }
                  }
                }
                JOINT Joint46
                {
                  OFFSET -0.0999 -0.0107 -0.0248
                  CHANNELS 3 Zrotation Xrotation Yrotation
                  JOINT Joint47
                  {
                    OFFSET -0.0290 0.0016 -0.0050
                    CHANNELS 3 Zrotation Xrotation Yrotation
                    JOINT Joint48
                    {
                      OFFSET -0.0236 -0.0012 -0.0076
                      CHANNELS 3 Zrotation Xrotation Yrotation
                      End Site
                      {
                        OFFSET -0.0236 -0.0012 -0.0076
                      }
                    }
                  }
                }
                JOINT Joint49
                {
                  OFFSET -0.0397 -0.0214 0.0306
                  CHANNELS 3 Zrotation Xrotation Yrotation
                  JOINT Joint50
                  {
                    OFFSET -0.0191 0.0007 0.0247
                    CHANNELS 3 Zrotation Xrotation Yrotation
                    JOINT Joint51
                    {
                      OFFSET -0.0231 -0.0056 0.0141
                      CHANNELS 3 Zrotation Xrotation Yrotation
                      End Site
                      {
                        OFFSET -0.0231 -0.0056 0.0141
                      }
                    }
                  }
                }
              }
            }
          }
        }
      }
    }
  }
}
MOTION
Frames: 9
Frame Time: 0.0333
0.0000 0.0000 0.0000 127.2202 65.3293 -29.0413 5.1618 -2.3780 -31.4787 -0.5298 26.9851 -15.6964 4.6373 -15.7570 6.3970 -0.3374 -0.0791 0.5025 -16.9304 -28.8472 9.5644 17.6746 15.8401 -25.8842 15.6490 -19.9776 24.0812 0.4577 -0.7297 0.0022 6.9330 38.3222 1.7338 27.6611 -2.2488 7.2894 -14.3269 -8.7678 38.7847 0.9303 -13.7767 21.4533 -1.8155 6.4769 -21.4316 -33.3030 -20.7779 23.0344 -68.8711 -35.9845 -38.8414 -19.7354 -11.8383 -21.1593 3.8972 -29.5772 2.8939 -23.3880 5.6857 3.5244 -42.7841 7.3174 -1.2635 -11.4202 -4.8615 -5.7088 -30.1674 -7.4985 0.9553 -40.5203 -8.5334 0.0559 -19.7645 -0.5088 -5.1530 -40.3520 -21.0137 -19.1656 -29.9080 -11.0384 -6.5327 -5.4916 -21.2666 -4.5224 -36.7208 -5.7254 -6.7694 -37.1795 -15.0495 -8.6950 -22.9811 -8.1906 -9.5399 -16.7550 46.4908 24.2272 3.5924 -28.0439 2.2002 -17.9066 30.2667 8.2019 27.8639 -5.2010 31.9762 39.8209 25.3950 -14.0042 -2.8044 -8.2041 37.4901 -11.7834 -12.9281 -4.7878 24.7500 5.1441 -4.1409 42.8899 7.5686 0.6613 10.7770 -5.2637 5.7719 30.2072 -6.9462 -0.7768 40.0811 -8.4323 0.3277 19.8588 -0.1373 5.6584 39.5935 -20.6842 19.2768 29.8425 -10.7656 6.7391 5.4906 -21.2183 4.4014 36.2306 -6.3329 7.4250 38.4005 -15.0027 8.4186 21.9166 -8.5523 8.8232 15.8034 47.0810 -23.6530 -4.3053 -28.9139 -2.1774 18.2389 29.1191 -7.9132
0.0000 0.0000 0.0000 126.8789 65.0510 -28.8505 5.2403 -2.6080 -31.4650 -0.6214 27.0685 -15.7524 4.6318 -15.7431 6.5912 -0.2732 -0.0826 0.4230 -17.5831 -28.9244 8.9906 17.5837 15.7399 -25.7885 15.4198 -19.9500 23.6618 0.4670 -0.7161 -0.0487 7.2958 38.2621 1.5457 27.5639 -2.0718 7.4137 -14.5287 -8.9299 39.1519 0.9386 -13.6715 21.2893 -1.9941 6.3134 -21.3065 -33.4532 -20.6682 22.9957 -68.6786 -36.1407 -38.7675 -19.7520 -11.9964 -21.1911 3.9001 -29.6451 2.6440 -23.4501 5.5792 3.5532 -42.7245 7.3062 -1.2714 -11.4776 -4.8660 -5.7101 -30.1797 -7.5625 1.0090 -40.5174 -8.5610 0.1210 -19.6744 -0.4735 -5.0702 -40.4031 -20.9862 -19.2110 -29.8513 -11.0195 -6.6162 -5.4868 -21.2998 -4.6702 -36.6567 -5.7458 -6.7115 -37.2729 -15.0555 -8.8746 -22.8797 -8.0980 -9.5732 -16.6816 46.5975 24.2047 3.6472 -27.9162 2.1046 -18.1321 30.2285 8.3218 27.7768 -5.3872 32.0377 39.5170 25.4127 -13.8270 -2.7719 -8.2281 37.6955 -11.7084 -12.8789 -4.6024 24.7088 5.1239 -4.1997 42.9207 7.5253 0.6060 10.6864 -5.2381 5.6546 30.1155 -6.9042 -0.8740 40.0149 -8.4717 0.2893 19.7973 -0.2608 5.6781 39.6206 -20.6981 19.3224 29.8353 -10.7158 6.7283 5.4292 -21.1797 4.3048 36.1627 -6.3125 7.4150 38.2840 -14.9776 8.3398 21.7930 -8.6361 8.8075 15.6663 47.1097 -23.6085 -4.2246 -28.9066 -2.0342 18.3005 29.0724 -8.0171
0.0000 0.0000 0.0000 126.6588 64.7386 -28.7561 5.1783 -2.7325 -31.6189 -0.5574 27.3693 -16.1465 4.7117 -15.9139 6.6888 -0.2965 -0.1400 0.3958 -17.9223 -28.9015 8.9328 17.6440 15.5900 -25.9824 15.4699 -20.0765 24.0576 0.4543 -0.6963 -0.0306 7.8416 38.5185 1.2631 27.6213 -1.9203 7.5866 -14.7442 -9.4557 39.8376 0.8704 -13.6264 21.6081 -2.1758 6.2878 -21.5886 -33.5951 -20.7860 23.0436 -68.6527 -36.2561 -38.9635 -19.9671 -12.1365 -21.2594 3.9526 -29.7303 2.5792 -23.4289 5.5655 3.6042 -42.6717 7.2880 -1.2924 -11.4754 -4.8705 -5.6674 -30.1436 -7.5765 1.0877 -40.5197 -8.6048 0.0959 -19.6388 -0.3955 -5.0406 -40.4210 -20.9896 -19.2301 -29.9212 -11.0078 -6.6778 -5.4945 -21.1834 -4.7300 -36.6358 -5.7947 -6.6623 -37.4157 -15.0226 -8.9782 -22.8092 -8.0744 -9.5543 -16.6455 46.5454 24.2071 3.5959 -27.7810 2.0137 -18.1459 30.2056 8.3684 27.6141 -5.6012 32.3295 39.3618 25.7247 -13.6470 -2.6627 -8.1153 37.9803 -11.5760 -12.9650 -4.6526 24.6448 5.1241 -4.2348 43.0328 7.5407 0.6285 10.6603 -5.1983 5.5889 30.2152 -6.8467 -0.9454 39.9896 -8.4862 0.2811 19.8448 -0.3129 5.7136 39.6317 -20.7274 19.3738 29.8148 -10.7165 6.7381 5.4465 -21.1551 4.3683 36.1878 -6.2392 7.4597 38.2613 -14.9619 8.3665 21.7399 -8.6454 8.8399 15.6545 47.0611 -23.6006 -4.1039 -28.9298 -1.9727 18.3889 29.0041 -8.1255
0.0000 0.0000 0.0000 126.4986 64.5335 -28.6115 5.0145 -2.8467 -31.8763 -0.4385 27.5679 -16.5703 4.7756 -16.1809 6.7611 -0.3813 -0.2020 0.3876 -18.1737 -28.8641 9.1419 17.7963 15.4279 -26.3546 15.5875 -20.2580 24.6702 0.4167 -0.6828 -0.0201 8.3412 39.0185 1.2243 27.7939 -1.7786 7.7486 -14.9051 -10.0540 40.5284 0.7522 -13.7027 22.1474 -2.3614 6.2478 -22.0775 -33.6391 -21.0083 23.1728 -68.7559 -36.3693 -39.2918 -20.1194 -12.2550 -21.3997 4.0711 -29.7486 2.5885 -23.3884 5.6054 3.6117 -42.6306 7.2783 -1.3252 -11.4393 -4.9022 -5.6075 -30.0998 -7.5434 1.1490 -40.5078 -8.6511 0.0638 -19.6609 -0.3670 -5.0346 -40.4050 -21.0007 -19.2060 -30.0087 -11.0184 -6.7138 -5.5037 -21.0326 -4.7194 -36.6430 -5.8432 -6.6080 -37.4829 -15.0096 -9.0076 -22.8337 -8.1155 -9.5290 -16.6366 46.4314 24.2278 3.5552 -27.7026 1.9622 -18.0443 30.2467 8.3656 27.5709 -5.7697 32.6569 39.2258 26.3057 -13.5617 -2.5552 -7.8947 38.2620 -11.4498 -13.1552 -4.8869 24.5718 5.1400 -4.2397 43.1264 7.5476 0.7199 10.6926 -5.2125 5.5872 30.3839 -6.8555 -0.9529 39.9296 -8.4863 0.2451 19.9005 -0.2836 5.7376 39.6466 -20.7259 19.4069 29.8238 -10.7369 6.7180 5.4618 -21.1532 4.4740 36.2547 -6.2103 7.4536 38.2996 -14.9709 8.4727 21.7484 -8.6435 8.8854 15.7121 46.9890 -23.6712 -4.0263 -28.9306 -1.9741 18.4409 28.9684 -8.1349
0.0000 0.0000 0.0000 126.4128 64.4362 -28.4199 4.8745 -2.9701 -32.0561 -0.3458 27.6559 -16.8066 4.8003 -16.3782 6.8578 -0.4281 -0.2241 0.3968 -18.5438 -28.8346 9.2180 17.9186 15.2875 -26.6624 15.6065 -20.3847 24.8982 0.3679 -0.6651 -0.0076 8.6966 39.5444 1.4664 27.9857 -1.6208 7.9007 -15.0031 -10.4952 41.0046 0.6386 -13.8701 22.5015 -2.5236 6.0934 -22.3835 -33.6113 -21.1038 23.2795 -68.8389 -36.4331 -39.4930 -20.1363 -12.3813 -21.5841 4.1601 -29.6793 2.4314 -23.3905 5.6509 3.5780 -42.6674 7.3125 -1.3586 -11.4367 -4.9152 -5.5877 -30.1033 -7.4908 1.1662 -40.4592 -8.7064 0.0403 -19.6577 -0.3872 -5.0330 -40.3878 -21.0159 -19.1526 -30.0316 -11.0461 -6.6889 -5.4782 -20.9272 -4.6849 -36.6478 -5.8861 -6.5725 -37.4811 -15.0070 -9.0215 -22.9329 -8.1861 -9.5598 -16.7028 46.4170 24.2952 3.5257 -27.7605 1.9736 -17.9108 30.3721 8.3599 27.6110 -5.9078 32.8455 38.9752 26.7713 -13.5330 -2.4944 -7.6554 38.4923 -11.3304 -13.3099 -5.0793 24.4913 5.1275 -4.2495 43.1789 7.5429 0.7672 10.7180 -5.2152 5.5871 30.4772 -6.8821 -0.9496 39.8781 -8.5129 0.1994 19.9205 -0.2536 5.7563 39.6662 -20.7012 19.4658 29.8398 -10.6807 6.7550 5.4300 -21.1536 4.5051 36.2887 -6.2841 7.4089 38.3193 -14.9933 8.5304 21.7918 -8.6435 8.9081 15.8489 46.9472 -23.8326 -4.0220 -28.8977 -2.0062 18.4317 29.0108 -8.1283
0.0000 0.0000 0.0000 126.3899 64.3389 -28.2563 4.8459 -3.1052 -32.1233 -0.3454 27.6699 -16.8482 4.7948 -16.4296 7.0104 -0.4358 -0.2149 0.4086 -19.1314 -28.7610 9.0423 17.9505 15.1800 -26.8815 15.5205 -20.4291 24.6589 0.3463 -0.6731 -0.0391 9.0095 39.9184 1.7576 28.1979 -1.3731 8.0672 -15.0897 -10.7752 41.3026 0.5140 -14.0776 22.5682 -2.6508 5.8001 -22.4831 -33.5483 -21.0266 23.3058 -68.8566 -36.4582 -39.4606 -20.0493 -12.5645 -21.8339 4.2060 -29.5541 2.0037 -23.4410 5.6834 3.5515 -42.6851 7.3535 -1.3946 -11.4333 -4.9168 -5.5903 -30.1208 -7.4547 1.1904 -40.4146 -8.7455 0.0192 -19.6097 -0.4104 -5.0773 -40.3844 -21.0075 -19.0956 -29.9917 -11.0574 -6.6512 -5.4644 -20.8966 -4.6319 -36.6310 -5.9202 -6.5718 -37.4644 -15.0084 -9.0381 -23.0012 -8.2169 -9.5319 -16.7963 46.4881 24.3976 3.5439 -27.8392 2.0399 -17.8521 30.4997 8.3634 27.6672 -6.0083 32.8866 38.6393 27.0324 -13.4724 -2.4667 -7.5439 38.7043 -11.2461 -13.3356 -5.1106 24.4737 5.1026 -4.2664 43.1588 7.5030 0.7599 10.6883 -5.2407 5.5789 30.4462 -6.9348 -0.9414 39.9238 -8.5487 0.2025 19.9249 -0.2478 5.7516 39.6872 -20.7111 19.5456 29.8517 -10.6554 6.7677 5.3944 -21.1350 4.4796 36.2652 -6.4332 7.3558 38.2959 -14.9998 8.5173 21.8231 -8.6165 8.8899 15.9065 46.8996 -23.9549 -4.0787 -28.8562 -2.0274 18.3532 29.0927 -8.1162
0.0000 0.0000 0.0000 126.3638 64.1642 -28.1459 4.9253 -3.2540 -32.2026 -0.4334 27.6192 -16.7335 4.7882 -16.4325 7.1654 -0.4232 -0.2013 0.4278 -19.8341 -28.6272 8.7009 17.9054 15.1299 -27.0383 15.3788 -20.4608 24.1365 0.3398 -0.6700 -0.0666 9.3666 40.0541 1.8914 28.4901 -1.0498 8.2431 -15.2201 -11.0400 41.5885 0.4244 -14.2310 22.5050 -2.7772 5.4183 -22.5088 -33.4929 -20.9104 23.2771 -68.8183 -36.5250 -39.2284 -19.9237 -12.8197 -22.1219 4.2494 -29.4104 1.4918 -23.4925 5.6920 3.5415 -42.7411 7.3959 -1.4142 -11.3894 -4.9566 -5.5718 -30.1267 -7.4307 1.2181 -40.4099 -8.7717 0.0254 -19.5704 -0.3459 -5.0769 -40.4046 -20.9917 -19.0601 -29.9497 -11.0548 -6.6325 -5.4553 -20.9115 -4.5967 -36.6129 -5.9270 -6.6073 -37.4429 -14.9932 -9.0491 -22.9712 -8.2310 -9.5168 -16.8631 46.5688 24.4710 3.5775 -27.8408 2.0549 -17.9238 30.6021 8.3949 27.6773 -6.0907 32.8137 38.3439 27.2280 -13.3708 -2.4339 -7.5052 38.9383 -11.2345 -13.2958 -5.0772 24.5160 5.0969 -4.2602 43.1129 7.4503 0.7210 10.6309 -5.2251 5.5661 30.3653 -6.9469 -0.9418 40.0043 -8.5552 0.2082 19.9318 -0.2455 5.7517 39.7138 -20.7459 19.6116 29.8653 -10.6638 6.7705 5.3694 -21.1175 4.4060 36.2554 -6.4848 7.3588 38.2245 -14.9975 8.4714 21.8529 -8.6801 8.8498 15.8921 46.8372 -23.9710 -4.1342 -28.8244 -2.0436 18.2461 29.1629 -8.0763
0.0000 0.0000 0.0000 126.2436 63.9515 -28.0290 5.0035 -3.4312 -32.3188 -0.5300 27.5477 -16.5747 4.7829 -16.4554 7.2652 -0.3901 -0.2002 0.4151 -20.4532 -28.3726 8.3470 17.8818 15.0798 -27.2286 15.2142 -20.5604 23.5890 0.3421 -0.6527 -0.0681 9.7807 39.9820 1.8056 28.8750 -0.7319 8.4159 -15.3768 -11.3668 41.9543 0.3953 -14.3597 22.4508 -2.9276 5.0979 -22.5857 -33.4932 -20.8525 23.2755 -68.6992 -36.6199 -38.9140 -19.7918 -13.0601 -22.4337 4.3003 -29.3782 1.1005 -23.5268 5.6752 3.5407 -42.7257 7.4043 -1.4023 -11.3717 -4.9728 -5.5433 -30.1262 -7.4093 1.2364 -40.4558 -8.7823 0.0175 -19.5109 -0.2496 -5.0973 -40.4389 -20.9688 -19.0764 -29.9455 -11.0293 -6.6479 -5.4395 -20.9186 -4.5961 -36.6251 -5.9219 -6.6380 -37.3984 -15.0026 -9.0518 -22.8938 -8.1890 -9.4945 -16.9081 46.6232 24.5107 3.5834 -27.8139 2.0226 -18.0180 30.6433 8.4374 27.6342 -6.1678 32.7039 38.1914 27.4993 -13.2239 -2.3507 -7.4206 39.2424 -11.3517 -13.2034 -5.1047 24.5529 5.1415 -4.2438 43.1050 7.4189 0.7022 10.5941 -5.1689 5.5662 30.3111 -6.9061 -0.9562 40.0781 -8.5589 0.2064 19.9395 -0.2534 5.7355 39.7518 -20.7582 19.6524 29.8951 -10.6744 6.7900 5.3819 -21.1090 4.3231 36.2183 -6.4922 7.4078 38.1296 -14.9775 8.4175 21.8494 -8.7448 8.7842 15.8423 46.8130 -23.9131 -4.1402 -28.8244 -1.9953 18.1707 29.1712 -8.0128
0.0000 0.0000 0.0000 126.0154 63.8108 -27.8642 4.9818 -3.5642 -32.5579 -0.5245 27.5311 -16.5648 4.8099 -16.5560 7.3300 -0.3576 -0.2144 0.3783 -20.8026 -28.0262 8.1196 17.9813 14.9837 -27.4992 15.0349 -20.7904 23.2328 0.3662 -0.6175 -0.0460 10.2117 39.8510 1.6023 29.2632 -0.4884 8.5784 -15.5104 -11.8475 42.4267 0.3352 -14.4798 22.4756 -3.1350 4.8757 -22.8064 -33.5365 -20.9054 23.4192 -68.5034 -36.6735 -38.6561 -19.6622 -13.2085 -22.7753 4.2629 -29.5656 0.8978 -23.5456 5.6281 3.5545 -42.6852 7.3803 -1.3323 -11.3750 -4.9833 -5.5113 -30.0961 -7.4062 1.2609 -40.5293 -8.7581 0.0098 -19.4907 -0.1710 -5.1264 -40.4206 -20.9669 -19.1001 -29.9757 -10.9987 -6.6768 -5.4410 -20.8931 -4.6309 -36.6365 -5.9106 -6.6745 -37.3775 -15.0114 -9.0504 -22.8696 -8.1672 -9.3991 -16.9357 46.6234 24.5663 3.5431 -27.8471 1.9681 -18.0774 30.6304 8.4551 27.5510 -6.2719 32.6281 38.1617 27.8692 -13.0450 -2.2090 -7.2250 39.4932 -11.5076 -13.1295 -5.2654 24.5301 5.2491 -4.2141 43.1472 7.4118 0.7033 10.5541 -5.1340 5.5790 30.3174 -6.8616 -0.9901 40.0873 -8.5630 0.1933 19.9876 -0.2496 5.7310 39.8082 -20.7482 19.6894 29.9081 -10.7013 6.7608 5.3972 -21.1025 4.3304 36.2103 -6.4704 7.4754 38.0714 -14.9537 8.4098 21.8101 -8.7289 8.7362 15.7984 46.7776 -23.8205 -4.1054 -28.8229 -1.9117 18.1771 29.0870 -7.9717
